<svg width="24" height="24" viewBox="0 0 1750 1750" xmlns="http://www.w3.org/2000/svg">
    <g transform="translate(0, 290.5)">
        <path d="M868.3,0C1133.6,0 1355,188.2 1406.2,438.5L1406.3,438.9 1421.8,439.7C1606.1,458.4 1750,614.1 1750,803.4 1750,992.7 1606.1,1148.4 1421.8,1167.1L1387.4,1168.8 1387.4,1169 1384.4,1169 1384.4,1169 1384.4,1169 417.6,1169 417.6,1166.3 389.8,1164.9C170.8,1142.7 0,957.8 0,733 0,523.1 148.8,348.1 346.7,307.6L378.1,302.8 385.5,287.4C478.5,116.2 659.8,0 868.3,0ZM1040,685 L860,685 L860,765 L950,765 C940,860 890,910 860,910 C800,910 760,860 760,780 L760,590 C760,510 800,460 860,460 C920,460 950,510 960,590 L1040,590 C1040,450 970,380 860,380 C750,380 670,450 670,590 L670,780 C670,920 750,990 860,990 C970,990 1040,920 1040,780 L1040,685 Z" fill="currentColor" fill-rule="evenodd" />
    </g>
</svg>