<?xml version="1.0" encoding="utf-8"?>
<svg xmlns="http://www.w3.org/2000/svg" viewBox="0 0 1750 1750">
  <g transform="translate(0, 290.5)">
    <path fill="currentColor" fill-rule="evenodd" d="M 1227.0 592.83 c 0.0 -26.0 -2.33 -51.0 -6.67 -75.0 H 875.0 v 142.0 h 197.33 c -8.67 45.67 -34.67 84.33 -73.67 110.33 v 92.33 h 119.0 c 69.33 -64.0 109.33 -158.0 109.33 -269.67 z M 875.0 951.17 c 99.0 0.0 182.0 -32.67 242.67 -88.67 l -119.0 -92.33 c -33.0 22.0 -75.0 35.33 -123.67 35.33 -95.33 0.0 -176.33 -64.33 -205.33 -151.0 H 547.67 v 94.67 C 608.0 868.83 731.67 951.17 875.0 951.17 z M 669.67 654.17 c -7.33 -22.0 -11.67 -45.33 -11.67 -69.67 s 4.33 -47.67 11.67 -69.67 V 420.17 H 547.67 C 522.67 469.5 508.33 525.17 508.33 584.5 s 14.33 115.0 39.33 164.33 l 122.0 -94.67 z M 875.0 363.83 c 54.0 0.0 102.0 18.67 140.33 55.33 l 105.0 -105.0 C 1056.67 254.17 974.0 217.83 875.0 217.83 731.67 217.83 608.0 300.17 547.67 420.17 l 122.0 94.67 c 29.0 -86.67 110.0 -151.0 205.33 -151.0 z M 868.3 0 C 1133.6 0 1355.0 188.2 1406.2 438.5 L 1406.3 438.9 L 1421.8 439.7 C 1606.1 458.4 1750.0 614.1 1750.0 803.4 C 1750.0 992.7 1606.1 1148.4 1421.8 1167.1 L 1387.4 1168.8 L 1387.4 1169.0 L 1384.4 1169.0 L 1384.4 1169.0 L 1384.4 1169.0 L 417.6 1169.0 L 417.6 1166.3 L 389.8 1164.9 C 170.8 1142.7 0.0 957.8 0.0 733.0 C 0.0 523.1 148.8 348.1 346.7 307.6 L 378.1 302.8 L 385.5 287.4 C 478.5 116.2 659.8 0.0 868.3 0.0 Z" />
  </g>
</svg>