<svg xmlns="http://www.w3.org/2000/svg" viewBox="0 0 64 64">
  <path fill="currentColor" d="M32 0C14.3 0 0 14.3 0 32s14.3 32 32 32 32-14.3 32-32S49.7 0 32 0zm-2 5.1C17.1 6.2 7 15.9 5.2 28h5.3c1.7-8.3 7.8-15 15.7-17.2-1.3-1.8-2.6-3.7-3.8-5.7zm4 0c-1.2 2-2.5 3.9-3.8 5.7 7.9 2.2 14 8.9 15.7 17.2h5.3C57 15.9 46.9 6.2 34 5.1zM28 11.1c-6.1 2.1-10.8 7.1-12.4 13.4-1.3 2.1-2.4 4.4-3.3 6.9-1.2 3.1-2 6.4-2.3 9.7H4.1c.3-13.8 11.5-25 25.4-25.3-1-1.6-1.5-3.1-1.5-4.7zm8 0c0 1.6-.5 3.1-1.5 4.7 13.9.3 25.1 11.5 25.4 25.3h-5.9c-.3-3.3-1.1-6.6-2.3-9.7-.9-2.5-2-4.8-3.3-6.9-1.6-6.3-6.3-11.3-12.4-13.4zM32 16.3c3.5 0 6.4 2.9 6.4 6.4s-2.9 6.4-6.4 6.4-6.4-2.9-6.4-6.4 2.9-6.4 6.4-6.4z"/>
</svg>
