<svg width="24" height="24" viewBox="0 0 1750 1750" xmlns="http://www.w3.org/2000/svg">
    <g transform="translate(0, 290.5)">
        <path d="M868.3,0C1133.6,0 1355,188.2 1406.2,438.5L1406.3,438.9 1421.8,439.7C1606.1,458.4 1750,614.1 1750,803.4 1750,992.7 1606.1,1148.4 1421.8,1167.1L1387.4,1168.8 1387.4,1169 1384.4,1169 1384.4,1169 1384.4,1169 417.6,1169 417.6,1166.3 389.8,1164.9C170.8,1142.7 0,957.8 0,733 0,523.1 148.8,348.1 346.7,307.6L378.1,302.8 385.5,287.4C478.5,116.2 659.8,0 868.3,0ZM848.3,424.3 C942.2,424.3 1018.3,500.4 1018.3,594.3 L1018.3,778.3 C1018.3,872.2 942.2,948.3 848.3,948.3 C754.4,948.3 678.3,872.2 678.3,778.3 L678.3,594.3 C678.3,500.4 754.4,424.3 848.3,424.3 Z M848.3,504.3 C804.1,504.3 768.3,540.1 768.3,584.3 L768.3,788.3 C768.3,832.5 804.1,868.3 848.3,868.3 C892.5,868.3 928.3,832.5 928.3,788.3 L928.3,584.3 C928.3,540.1 892.5,504.3 848.3,504.3 Z" fill="currentColor" fill-rule="evenodd" />
    </g>
</svg>
